<svg xmlns="http://www.w3.org/2000/svg" width="720" height="420" viewBox="0 0 720 420" role="img" aria-labelledby="title desc">
  <title id="title">鲜果特惠活动图</title>
  <desc id="desc">绿色清新背景上的特惠水果篮和折扣标签</desc>
  <defs>
    <linearGradient id="bg" x1="0" y1="0" x2="1" y2="1">
      <stop offset="0" stop-color="#ecfdf5"/>
      <stop offset="0.58" stop-color="#d1fae5"/>
      <stop offset="1" stop-color="#fef3c7"/>
    </linearGradient>
    <linearGradient id="tag" x1="0" y1="0" x2="1" y2="1">
      <stop offset="0" stop-color="#f97316"/>
      <stop offset="1" stop-color="#f59e0b"/>
    </linearGradient>
    <filter id="shadow" x="-20%" y="-20%" width="140%" height="140%">
      <feDropShadow dx="0" dy="16" stdDeviation="18" flood-color="#0f5132" flood-opacity="0.18"/>
    </filter>
  </defs>
  <rect width="720" height="420" rx="28" fill="url(#bg)"/>
  <circle cx="96" cy="74" r="44" fill="#bbf7d0" opacity=".65"/>
  <circle cx="638" cy="338" r="56" fill="#fde68a" opacity=".7"/>
  <path d="M72 316 C180 256 280 302 382 236 C470 178 566 190 650 124" fill="none" stroke="#86efac" stroke-width="18" stroke-linecap="round" opacity=".45"/>
  <g filter="url(#shadow)">
    <path d="M192 210 h264 c26 0 45 24 38 49 l-24 88 c-6 21-25 36-47 36H226c-23 0-43-16-48-39l-21-88c-6-24 12-46 35-46z" fill="#ffffff"/>
    <path d="M185 220 h288 l-14 42H198z" fill="#10b981"/>
    <path d="M246 204 c-10-42 20-72 58-78 45-6 84 20 92 63" fill="none" stroke="#166534" stroke-width="14" stroke-linecap="round"/>
    <circle cx="252" cy="176" r="42" fill="#fb7185"/>
    <circle cx="324" cy="166" r="46" fill="#f97316"/>
    <circle cx="396" cy="178" r="44" fill="#facc15"/>
    <circle cx="464" cy="186" r="34" fill="#84cc16"/>
    <path d="M321 118 c20-28 48-30 70-8-27 2-47 12-59 30z" fill="#15803d"/>
    <path d="M445 140 c16-22 40-22 58-4-22 2-38 10-48 24z" fill="#16a34a"/>
  </g>
  <g transform="translate(470 82) rotate(8)" filter="url(#shadow)">
    <path d="M0 0 h124 l34 38 -34 38H0z" fill="url(#tag)"/>
    <circle cx="18" cy="38" r="7" fill="#fff7ed"/>
    <text x="54" y="34" text-anchor="middle" font-family="Arial, 'Noto Sans SC', sans-serif" font-size="24" font-weight="800" fill="#fff">特惠</text>
    <text x="76" y="58" text-anchor="middle" font-family="Arial, 'Noto Sans SC', sans-serif" font-size="16" font-weight="700" fill="#fff7ed">FRESH DEAL</text>
  </g>
  <g>
    <text x="74" y="104" font-family="Arial, 'Noto Sans SC', sans-serif" font-size="28" font-weight="800" fill="#14532d">鲜果特惠</text>
    <text x="74" y="142" font-family="Arial, 'Noto Sans SC', sans-serif" font-size="17" font-weight="600" fill="#4b5563">新鲜折扣 · 低价优选</text>
  </g>
</svg>
