<svg xmlns="http://www.w3.org/2000/svg" width="720" height="420" viewBox="0 0 720 420" role="img" aria-labelledby="title desc">
  <title id="title">新鲜到店活动图</title>
  <desc id="desc">清晨采摘后入库的新鲜水果和蔬菜</desc>
  <defs>
    <linearGradient id="bg" x1="0" y1="0" x2="1" y2="1">
      <stop offset="0" stop-color="#ecfdf5"/>
      <stop offset=".56" stop-color="#d1fae5"/>
      <stop offset="1" stop-color="#fef9c3"/>
    </linearGradient>
    <filter id="shadow" x="-20%" y="-20%" width="140%" height="140%">
      <feDropShadow dx="0" dy="16" stdDeviation="18" flood-color="#166534" flood-opacity=".18"/>
    </filter>
  </defs>
  <rect width="720" height="420" rx="28" fill="url(#bg)"/>
  <circle cx="596" cy="88" r="58" fill="#bbf7d0" opacity=".7"/>
  <circle cx="126" cy="326" r="62" fill="#fde68a" opacity=".55"/>
  <path d="M80 246 C180 180 282 216 382 150 C482 84 560 126 650 78" fill="none" stroke="#86efac" stroke-width="18" stroke-linecap="round" opacity=".45"/>
  <g transform="translate(338 116)" filter="url(#shadow)">
    <rect x="0" y="72" width="232" height="132" rx="22" fill="#ffffff"/>
    <path d="M24 94 h184 l-18 82 H42z" fill="#10b981"/>
    <circle cx="72" cy="66" r="42" fill="#fb7185"/>
    <circle cx="124" cy="58" r="46" fill="#f97316"/>
    <circle cx="176" cy="72" r="38" fill="#facc15"/>
    <path d="M132 8 c24-22 52-18 70 6-30 0-48 12-60 32z" fill="#15803d"/>
    <path d="M58 20 c20-18 42-16 58 4-24 0-38 10-48 28z" fill="#16a34a"/>
    <rect x="44" y="146" width="146" height="16" rx="8" fill="#dcfce7"/>
    <rect x="62" y="174" width="110" height="12" rx="6" fill="#bbf7d0"/>
  </g>
  <g>
    <text x="72" y="106" font-family="Arial, 'Noto Sans SC', sans-serif" font-size="32" font-weight="800" fill="#14532d">新鲜到店</text>
    <text x="72" y="148" font-family="Arial, 'Noto Sans SC', sans-serif" font-size="18" font-weight="700" fill="#4b5563">刚采摘 · 有保质期 · 放心选</text>
    <rect x="72" y="178" width="118" height="34" rx="17" fill="#ffffff" opacity=".84"/>
    <text x="131" y="201" text-anchor="middle" font-family="Arial, 'Noto Sans SC', sans-serif" font-size="15" font-weight="800" fill="#047857">今日入库</text>
  </g>
</svg>
