<svg xmlns="http://www.w3.org/2000/svg" viewBox="0 0 420 260" role="img" aria-label="coupon discount gifts">
  <defs>
    <linearGradient id="bg" x1="0" y1="0" x2="1" y2="1">
      <stop offset="0" stop-color="#fff7ea"/>
      <stop offset=".5" stop-color="#ffe8d6"/>
      <stop offset="1" stop-color="#e9f7ed"/>
    </linearGradient>
    <linearGradient id="coupon" x1="0" y1="0" x2="1" y2="1">
      <stop offset="0" stop-color="#ff835f"/>
      <stop offset="1" stop-color="#f3b44f"/>
    </linearGradient>
    <filter id="shadow" x="-20%" y="-20%" width="140%" height="140%">
      <feDropShadow dx="0" dy="14" stdDeviation="11" flood-color="#8a553c" flood-opacity=".18"/>
    </filter>
  </defs>
  <rect width="420" height="260" rx="28" fill="url(#bg)"/>
  <circle cx="332" cy="62" r="44" fill="#bee7c8" opacity=".72"/>
  <circle cx="70" cy="192" r="58" fill="#ffdca8" opacity=".62"/>
  <g filter="url(#shadow)">
    <path d="M103 85h214c10 0 18 8 18 18v26c-13 4-22 16-22 31s9 27 22 31v26c0 10-8 18-18 18H103c-10 0-18-8-18-18v-26c13-4 22-16 22-31s-9-27-22-31v-26c0-10 8-18 18-18z" fill="url(#coupon)"/>
    <path d="M145 106v108" stroke="#fff5df" stroke-width="4" stroke-dasharray="10 9" opacity=".85"/>
    <circle cx="221" cy="133" r="25" fill="#fff7e8" opacity=".96"/>
    <circle cx="272" cy="185" r="25" fill="#fff7e8" opacity=".96"/>
    <path d="M196 202l101-92" stroke="#fff7e8" stroke-width="14" stroke-linecap="round"/>
  </g>
  <g filter="url(#shadow)">
    <rect x="258" y="58" width="66" height="48" rx="10" fill="#42ad73"/>
    <path d="M291 58v48M258 82h66" stroke="#fff1c7" stroke-width="8"/>
    <path d="M281 56c-24-12-24-35 0-28 10 3 12 16 10 29" fill="none" stroke="#42ad73" stroke-width="8" stroke-linecap="round"/>
    <path d="M300 56c24-12 24-35 0-28-10 3-12 16-10 29" fill="none" stroke="#42ad73" stroke-width="8" stroke-linecap="round"/>
  </g>
</svg>
