<svg xmlns="http://www.w3.org/2000/svg" width="720" height="420" viewBox="0 0 720 420" role="img" aria-labelledby="title desc">
  <title id="title">临期特惠活动图</title>
  <desc id="desc">带保质期进度条的生鲜特惠商品</desc>
  <defs>
    <linearGradient id="bg" x1="0" y1="0" x2="1" y2="1">
      <stop offset="0" stop-color="#f0fdf4"/>
      <stop offset=".55" stop-color="#fffbeb"/>
      <stop offset="1" stop-color="#fed7aa"/>
    </linearGradient>
    <linearGradient id="tag" x1="0" y1="0" x2="1" y2="1">
      <stop offset="0" stop-color="#f97316"/>
      <stop offset="1" stop-color="#ef4444"/>
    </linearGradient>
    <filter id="shadow" x="-20%" y="-20%" width="140%" height="140%">
      <feDropShadow dx="0" dy="16" stdDeviation="18" flood-color="#7c2d12" flood-opacity=".18"/>
    </filter>
  </defs>
  <rect width="720" height="420" rx="28" fill="url(#bg)"/>
  <circle cx="102" cy="92" r="52" fill="#bbf7d0" opacity=".64"/>
  <circle cx="622" cy="322" r="62" fill="#fdba74" opacity=".45"/>
  <g transform="translate(342 108)" filter="url(#shadow)">
    <rect x="0" y="34" width="250" height="190" rx="24" fill="#ffffff"/>
    <circle cx="76" cy="94" r="38" fill="#f97316"/>
    <circle cx="130" cy="92" r="42" fill="#84cc16"/>
    <path d="M122 42 c20-22 46-22 66-2-28 2-44 14-52 30z" fill="#16a34a"/>
    <rect x="44" y="148" width="164" height="14" rx="7" fill="#fee2e2"/>
    <rect x="44" y="148" width="92" height="14" rx="7" fill="#f97316"/>
    <text x="126" y="188" text-anchor="middle" font-family="Arial, 'Noto Sans SC', sans-serif" font-size="18" font-weight="800" fill="#9a3412">保质期过半</text>
  </g>
  <g transform="translate(488 70) rotate(8)" filter="url(#shadow)">
    <path d="M0 0 h122 l34 38 -34 38H0z" fill="url(#tag)"/>
    <circle cx="18" cy="38" r="7" fill="#fff7ed"/>
    <text x="76" y="48" text-anchor="middle" font-family="Arial, 'Noto Sans SC', sans-serif" font-size="24" font-weight="800" fill="#fff">降价</text>
  </g>
  <g>
    <text x="72" y="112" font-family="Arial, 'Noto Sans SC', sans-serif" font-size="32" font-weight="800" fill="#7c2d12">临期特惠</text>
    <text x="72" y="154" font-family="Arial, 'Noto Sans SC', sans-serif" font-size="18" font-weight="700" fill="#57534e">保质期过半 · 动态折扣 · 及时享鲜</text>
    <rect x="72" y="184" width="128" height="34" rx="17" fill="#ffffff" opacity=".86"/>
    <text x="136" y="207" text-anchor="middle" font-family="Arial, 'Noto Sans SC', sans-serif" font-size="15" font-weight="800" fill="#ea580c">优先展示</text>
  </g>
</svg>
