<svg xmlns="http://www.w3.org/2000/svg" viewBox="0 0 420 260" role="img" aria-label="seasonal fruit selection">
  <defs>
    <linearGradient id="bg" x1="0" y1="0" x2="1" y2="1">
      <stop offset="0" stop-color="#fff8df"/>
      <stop offset=".48" stop-color="#eef8e7"/>
      <stop offset="1" stop-color="#d7f1ef"/>
    </linearGradient>
    <linearGradient id="plate" x1="0" y1="0" x2="1" y2="1">
      <stop offset="0" stop-color="#ffffff"/>
      <stop offset="1" stop-color="#edf7ef"/>
    </linearGradient>
    <filter id="shadow" x="-20%" y="-20%" width="140%" height="140%">
      <feDropShadow dx="0" dy="12" stdDeviation="10" flood-color="#39664a" flood-opacity=".16"/>
    </filter>
  </defs>
  <rect width="420" height="260" rx="28" fill="url(#bg)"/>
  <path d="M-12 205c65-38 125 7 186-25 70-36 112-56 258-18v98H-12z" fill="#ccebd6" opacity=".62"/>
  <g opacity=".55">
    <circle cx="66" cy="62" r="6" fill="#7abf69"/>
    <circle cx="343" cy="68" r="8" fill="#f0b84f"/>
    <circle cx="369" cy="191" r="5" fill="#73bcae"/>
  </g>
  <g filter="url(#shadow)">
    <ellipse cx="210" cy="164" rx="138" ry="46" fill="url(#plate)"/>
    <ellipse cx="210" cy="163" rx="96" ry="25" fill="#d6eddd"/>
  </g>
  <g filter="url(#shadow)">
    <circle cx="142" cy="128" r="34" fill="#ff6f61"/>
    <path d="M142 88c15 2 25 8 31 20-15 5-28 1-39-12z" fill="#4cb56d"/>
    <circle cx="198" cy="114" r="40" fill="#ffcf4d"/>
    <path d="M198 68c19 4 31 14 35 31-18 3-33-4-45-21z" fill="#55b970"/>
    <circle cx="260" cy="130" r="33" fill="#7ccf6d"/>
    <path d="M260 89c18 1 31 10 39 25-16 6-31 1-45-15z" fill="#2f995d"/>
    <circle cx="306" cy="147" r="23" fill="#ff9a55"/>
  </g>
  <path d="M68 145c28-34 55-49 91-51" fill="none" stroke="#83c78d" stroke-width="5" stroke-linecap="round" opacity=".45"/>
  <path d="M303 83c26 15 42 35 48 60" fill="none" stroke="#f2ba55" stroke-width="5" stroke-linecap="round" opacity=".45"/>
</svg>
